<svg xmlns="http://www.w3.org/2000/svg" viewBox="2574.5 97.5 36.79 41">
  <defs>
    <style>
      .cls-1 {
        fill: #00bfa5;
        stroke: #00bfa5;
      }

      .cls-2 {
        fill: #fff;
        stroke: #fff;
        stroke-width: 0.2px;
      }
    </style>
  </defs>
  <g id="Group_2212" data-name="Group 2212" transform="translate(1643)">
    <path id="path-13" class="cls-1" d="M17.895,40a4.339,4.339,0,0,1-2.045-.526L2.027,31.5A4.179,4.179,0,0,1,0,27.949V12.03A4.032,4.032,0,0,1,2.027,8.5L15.9.532A4.3,4.3,0,0,1,17.895,0h0A4.335,4.335,0,0,1,19.94.527L33.762,8.5a4.178,4.178,0,0,1,2.027,3.552V27.97A4.032,4.032,0,0,1,33.762,31.5L19.888,39.468A4.3,4.3,0,0,1,17.895,40h0Z" transform="translate(932 98)"/>
    <g id="Group_1502" data-name="Group 1502" transform="translate(941.923 108.604)">
      <g id="Group_1501" data-name="Group 1501" transform="translate(0)">
        <path id="Path_1711" data-name="Path 1711" class="cls-2" d="M9.862,15.27H6.044a1.916,1.916,0,0,0,3.818,0Zm5.408-.636V13.68a.937.937,0,0,0-.954-.954.937.937,0,0,1-.954-.954V7.953A5.451,5.451,0,0,0,9.321,2.7L9.067,2.64V1.75a1.113,1.113,0,0,0-2.227,0V2.64L6.585,2.7a5.451,5.451,0,0,0-4.04,5.249v3.818a.937.937,0,0,1-.954.954.937.937,0,0,0-.954.954v.954Z"/>
      </g>
    </g>
  </g>
</svg>
