<svg xmlns="http://www.w3.org/2000/svg" viewBox="10603.5 5291.5 61 68.059">
  <defs>
    <style>
      .cls-1 {
        fill: rgba(255,255,255,0);
        stroke: #4a5860;
      }

      .cls-2, .cls-4 {
        fill: none;
      }

      .cls-2 {
        stroke: #fff;
      }

      .cls-3 {
        stroke: none;
      }
    </style>
  </defs>
  <g id="Group_2210" data-name="Group 2210" transform="translate(10020 -337)">
    <path id="path-13" class="cls-1" d="M30,67.058a7.274,7.274,0,0,1-3.429-.883L3.4,52.81A7.007,7.007,0,0,1,0,46.855V20.169a6.759,6.759,0,0,1,3.4-5.911L26.659.892A7.2,7.2,0,0,1,30,0h0a7.267,7.267,0,0,1,3.429.883L56.6,14.248A7,7,0,0,1,60,20.2V46.89A6.76,6.76,0,0,1,56.6,52.8L33.341,66.166a7.2,7.2,0,0,1-3.34.892h0Z" transform="translate(584 5629)"/>
    <g id="Group_1407" data-name="Group 1407" transform="translate(597.5 5648)">
      <g id="Rectangle_66" data-name="Rectangle 66" class="cls-2" transform="translate(0 0)">
        <rect class="cls-3" width="33" height="28.5" rx="5"/>
        <rect class="cls-4" x="0.5" y="0.5" width="32" height="27.5" rx="4.5"/>
      </g>
      <path id="Path_1688" data-name="Path 1688" class="cls-2" d="M7487.19,2210.132l14.55,15.714,13.95-15.714" transform="translate(-7484.939 -2208.109)"/>
      <line id="Line_126" data-name="Line 126" class="cls-2" x1="11.394" y2="8.932" transform="translate(0.386 12.656)"/>
      <line id="Line_128" data-name="Line 128" class="cls-2" x1="11.394" y1="8.932" transform="translate(21.102 12.656)"/>
    </g>
  </g>
</svg>
