<svg xmlns="http://www.w3.org/2000/svg" viewBox="10859.5 5291.5 61 68.059">
  <defs>
    <style>
      .cls-1, .cls-2, .cls-5 {
        fill: none;
      }

      .cls-1 {
        stroke: #4a5860;
      }

      .cls-2, .cls-3 {
        stroke: #fff;
      }

      .cls-3 {
        fill: #00bfa5;
      }

      .cls-4 {
        stroke: none;
      }
    </style>
  </defs>
  <g id="Group_2211" data-name="Group 2211" transform="translate(10020 -337)">
    <path id="path-13" class="cls-1" d="M30,67.059a7.274,7.274,0,0,1-3.429-.883L3.4,52.81A7.007,7.007,0,0,1,0,46.855V20.169a6.759,6.759,0,0,1,3.4-5.911L26.659.892A7.2,7.2,0,0,1,30,0h0a7.267,7.267,0,0,1,3.429.883L56.6,14.248A7,7,0,0,1,60,20.2V46.89A6.76,6.76,0,0,1,56.6,52.8L33.341,66.166a7.2,7.2,0,0,1-3.34.892h0Z" transform="translate(840 5629)"/>
    <g id="Group_1509" data-name="Group 1509" transform="translate(193.166 5182)">
      <g id="Group_1508" data-name="Group 1508" transform="translate(660.333 462.296)">
        <g id="Rectangle_66" data-name="Rectangle 66" class="cls-2" transform="translate(0 4.5)">
          <rect class="cls-4" width="33" height="28.5" rx="5"/>
          <rect class="cls-5" x="0.5" y="0.5" width="32" height="27.5" rx="4.5"/>
        </g>
        <g id="Rectangle_67" data-name="Rectangle 67" class="cls-3" transform="translate(7.5)">
          <rect class="cls-4" width="4.5" height="10.5" rx="2"/>
          <rect class="cls-5" x="0.5" y="0.5" width="3.5" height="9.5" rx="1.5"/>
        </g>
        <g id="Rectangle_68" data-name="Rectangle 68" class="cls-3" transform="translate(21)">
          <rect class="cls-4" width="4.5" height="10.5" rx="2"/>
          <rect class="cls-5" x="0.5" y="0.5" width="3.5" height="9.5" rx="1.5"/>
        </g>
        <g id="Group_1321" data-name="Group 1321" transform="translate(9 11.25)">
          <line id="Line_110" data-name="Line 110" class="cls-2" y2="15" transform="translate(7.5)"/>
          <line id="Line_111" data-name="Line 111" class="cls-2" x1="15" transform="translate(0 7.5)"/>
        </g>
      </g>
    </g>
  </g>
</svg>
