<svg xmlns="http://www.w3.org/2000/svg" viewBox="13837 869 40 40">
  <defs>
    <style>
      .cls-1 {
        fill: none;
        stroke: #4a5860;
      }

      .cls-2 {
        fill: #4a5860;
      }
    </style>
  </defs>
  <g id="Group_1859" data-name="Group 1859" transform="translate(12540 -33)">
    <path id="Path_1710" data-name="Path 1710" class="cls-1" d="M.5.5h39v39H.5Z" transform="translate(1297 902)"/>
    <g id="Group_1326" data-name="Group 1326" transform="translate(1310 915.023)">
      <g id="Group_1325" data-name="Group 1325" transform="translate(0 -0.023)">
        <path id="Path_1588" data-name="Path 1588" class="cls-2" d="M14.648,8.249a1.136,1.136,0,0,0,0-1.645L8.3.338A1.163,1.163,0,1,0,6.658,1.983L10.379,5.7c.313.313.2.548-.235.548H1.175a1.175,1.175,0,0,0,0,2.35H10.1c.431,0,.548.235.235.548L6.619,12.871a1.163,1.163,0,1,0,1.645,1.645Z" transform="translate(0 0.023)"/>
      </g>
    </g>
  </g>
</svg>
