<svg xmlns="http://www.w3.org/2000/svg" viewBox="10222.5 5291.5 61 68.059">
  <defs>
    <style>
      .cls-1 {
        fill: rgba(255,255,255,0);
        stroke: #4a5860;
      }

      .cls-2 {
        fill: none;
        stroke: #fff;
      }
    </style>
  </defs>
  <g id="Group_2209" data-name="Group 2209" transform="translate(10020 -337)">
    <path id="path-13" class="cls-1" d="M30,67.059a7.274,7.274,0,0,1-3.429-.883L3.4,52.811A7.007,7.007,0,0,1,0,46.855V20.169a6.759,6.759,0,0,1,3.4-5.911L26.659.892A7.2,7.2,0,0,1,30,0h0a7.267,7.267,0,0,1,3.429.883L56.6,14.248A7,7,0,0,1,60,20.2V46.89A6.76,6.76,0,0,1,56.6,52.8L33.341,66.166a7.2,7.2,0,0,1-3.34.892h0Z" transform="translate(203 5629)"/>
    <path id="Path_1583" data-name="Path 1583" class="cls-2" d="M4.257.059A.939.939,0,0,0,3.7.1C1.681.88.411,3.756.112,5.735c-.934,6.423,4.145,11.987,8.813,15.647,4.145,3.249,12.1,8.589,16.8,3.436a3.873,3.873,0,0,0,1.27-2.5c-.112-1.568-1.568-2.689-2.689-3.548-.859-.635-2.651-2.39-3.772-2.353-1.008.037-1.643,1.083-2.278,1.718l-1.12,1.12c-.187.187-2.577-1.382-2.838-1.568a19.056,19.056,0,0,1-2.726-2.129,17.607,17.607,0,0,1-2.2-2.539c-.187-.261-1.718-2.539-1.568-2.726,0,0,1.307-1.419,1.68-1.979.784-1.195,1.382-2.129.485-3.548A8.351,8.351,0,0,0,8.776,3.382,22.726,22.726,0,0,0,6.311,1.216,5.265,5.265,0,0,0,4.257.059Z" transform="translate(219.778 5649.258)"/>
  </g>
</svg>
