<?xml version="1.0" encoding="utf-8"?>
<!-- Generator: Adobe Illustrator 21.0.0, SVG Export Plug-In . SVG Version: 6.00 Build 0)  -->
<svg version="1.1" id="Layer_1" xmlns="http://www.w3.org/2000/svg" xmlns:xlink="http://www.w3.org/1999/xlink" x="0px" y="0px"
	 viewBox="0 0 40 40" style="enable-background:new 0 0 40 40;" xml:space="preserve">
<style type="text/css">
	.st0{fill:#FFFFFF;}
	.st1{fill:#AD1265;}
</style>
<g id="Group_1762" transform="translate(3308 -30)">
	<rect id="Rectangle_72" x="-3308" y="30" class="st0" width="40" height="40"/>
	<g id="Group_1326" transform="translate(1310 915.023)">
		<g id="Group_1325" transform="translate(0 -0.023)">
			<path id="Path_1588" class="st1" d="M-4590.4-863.7c0.5-0.4,0.5-1.2,0-1.6c0,0,0,0,0,0l-6.3-6.3c-0.4-0.5-1.2-0.5-1.6-0.1
				c-0.5,0.4-0.5,1.2-0.1,1.6c0,0,0,0,0.1,0.1l3.7,3.7c0.3,0.3,0.2,0.5-0.2,0.5h-9c-0.6,0-1.2,0.5-1.2,1.2s0.5,1.2,1.2,1.2h8.9
				c0.4,0,0.5,0.2,0.2,0.5l-3.7,3.7c-0.5,0.5-0.5,1.2,0,1.6c0.5,0.5,1.2,0.5,1.6,0L-4590.4-863.7z"/>
		</g>
	</g>
</g>
</svg>
