<svg xmlns="http://www.w3.org/2000/svg" viewBox="1693.5 930.5 41.5 46.264">
  <defs>
    <style>
      .cls-1, .cls-2, .cls-5 {
        fill: none;
      }

      .cls-1 {
        stroke: #00bfa5;
      }

      .cls-2, .cls-3 {
        stroke: #4a5860;
      }

      .cls-3 {
        fill: #fff;
      }

      .cls-4 {
        stroke: none;
      }
    </style>
  </defs>
  <g id="Group_1399" data-name="Group 1399" transform="translate(1670)">
    <path id="path-13" class="cls-1" d="M20.25,45.264a4.91,4.91,0,0,1-2.314-.6L2.294,35.647A4.73,4.73,0,0,1,0,31.627V13.614a4.563,4.563,0,0,1,2.294-3.99L18,.6A4.863,4.863,0,0,1,20.25,0h0a4.905,4.905,0,0,1,2.314.6L38.206,9.617a4.728,4.728,0,0,1,2.294,4.02V31.651a4.563,4.563,0,0,1-2.294,3.99L22.5,44.662a4.862,4.862,0,0,1-2.255.6h0Z" transform="translate(24 931)"/>
    <g id="Rectangle_66" data-name="Rectangle 66" class="cls-2" transform="translate(33 945)">
      <rect class="cls-4" width="22" height="19" rx="5"/>
      <rect class="cls-5" x="0.5" y="0.5" width="21" height="18" rx="4.5"/>
    </g>
    <g id="Rectangle_67" data-name="Rectangle 67" class="cls-3" transform="translate(38 942)">
      <rect class="cls-4" width="3" height="7" rx="1.5"/>
      <rect class="cls-5" x="0.5" y="0.5" width="2" height="6" rx="1"/>
    </g>
    <g id="Rectangle_68" data-name="Rectangle 68" class="cls-3" transform="translate(47 942)">
      <rect class="cls-4" width="3" height="7" rx="1.5"/>
      <rect class="cls-5" x="0.5" y="0.5" width="2" height="6" rx="1"/>
    </g>
    <g id="Group_1321" data-name="Group 1321" transform="translate(-0.5)">
      <line id="Line_110" data-name="Line 110" class="cls-2" y2="10" transform="translate(44.5 949.5)"/>
      <line id="Line_111" data-name="Line 111" class="cls-2" x1="10" transform="translate(39.5 954.5)"/>
    </g>
  </g>
</svg>
