<svg xmlns="http://www.w3.org/2000/svg" viewBox="10541 2580 50 50">
  <defs>
    <style>
      .cls-1 {
        fill: #00bfa5;
        stroke: #00bfa5;
      }

      .cls-2 {
        fill: #fff;
      }

      .cls-3, .cls-5 {
        fill: none;
      }

      .cls-3 {
        stroke: #fff;
        stroke-width: 3px;
      }

      .cls-4 {
        stroke: none;
      }
    </style>
  </defs>
  <g id="Group_2207" data-name="Group 2207" transform="translate(9452.5 1831)">
    <g id="Rectangle_91" data-name="Rectangle 91" class="cls-1" transform="translate(1088.5 749)">
      <rect class="cls-4" width="50" height="50"/>
      <rect class="cls-5" x="0.5" y="0.5" width="49" height="49"/>
    </g>
    <g id="Group_1326" data-name="Group 1326" transform="translate(1123.366 759) rotate(90)">
      <g id="Group_1325" data-name="Group 1325" transform="translate(0 -0.023)">
        <path id="Path_1588" data-name="Path 1588" class="cls-2" d="M19.53,11.007a1.514,1.514,0,0,0,0-2.193L11.07.459A1.551,1.551,0,1,0,8.877,2.652l4.961,4.961c.418.418.261.731-.313.731H1.567a1.567,1.567,0,0,0,0,3.133H13.473c.574,0,.731.313.313.731L8.825,17.169a1.551,1.551,0,1,0,2.193,2.193Z" transform="translate(0 0.023)"/>
      </g>
    </g>
    <line id="Line_125" data-name="Line 125" class="cls-3" x2="19" transform="translate(1104 785.5)"/>
  </g>
</svg>
