<svg xmlns="http://www.w3.org/2000/svg" viewBox="7016 344.551 144 160.92">
  <defs>
    <style>
      .cls-1 {
        fill: #e27b01;
      }
    </style>
  </defs>
  <path id="Path_1606" data-name="Path 1606" class="cls-1" d="M72,160.92a16.724,16.724,0,0,1-8.28-2.16L8.16,126.72A16.622,16.622,0,0,1,0,112.44V48.36A16.28,16.28,0,0,1,8.16,34.2L63.96,2.16A17.527,17.527,0,0,1,72,0a16.723,16.723,0,0,1,8.28,2.16L135.84,34.2A16.622,16.622,0,0,1,144,48.48v64.08a16.28,16.28,0,0,1-8.16,14.16l-55.8,32.04A16.171,16.171,0,0,1,72,160.92" transform="translate(7016 344.551)"/>
</svg>
