<svg xmlns="http://www.w3.org/2000/svg" viewBox="9706 104.167 160 178.8">
  <defs>
    <style>
      .cls-1 {
        fill: #ad1265;
      }
    </style>
  </defs>
  <path id="Path_1603" data-name="Path 1603" class="cls-1" d="M80,178.8a18.581,18.581,0,0,1-9.2-2.4L9.067,140.8A18.469,18.469,0,0,1,0,124.933v-71.2A18.089,18.089,0,0,1,9.067,38l62-35.6A19.475,19.475,0,0,1,80,0a18.581,18.581,0,0,1,9.2,2.4L150.933,38A18.469,18.469,0,0,1,160,53.867v71.2a18.089,18.089,0,0,1-9.067,15.733l-62,35.6A17.967,17.967,0,0,1,80,178.8" transform="translate(9706 104.167)"/>
</svg>
