<svg xmlns="http://www.w3.org/2000/svg" viewBox="10381 941 120 134.1">
  <defs>
    <style>
      .cls-1 {
        fill: #087e95;
      }
    </style>
  </defs>
  <path id="Path_1604" data-name="Path 1604" class="cls-1" d="M60,134.1a13.936,13.936,0,0,1-6.9-1.8L6.8,105.6A13.851,13.851,0,0,1,0,93.7V40.3A13.567,13.567,0,0,1,6.8,28.5L53.3,1.8A14.606,14.606,0,0,1,60,0a13.936,13.936,0,0,1,6.9,1.8l46.3,26.7A13.851,13.851,0,0,1,120,40.4V93.8a13.567,13.567,0,0,1-6.8,11.8L66.7,132.3a13.476,13.476,0,0,1-6.7,1.8" transform="translate(10381 941)"/>
</svg>
