<svg xmlns="http://www.w3.org/2000/svg" viewBox="10473 2580 50 50">
  <defs>
    <style>
      .cls-1 {
        fill: #00bfa5;
        stroke: #00bfa5;
      }

      .cls-2 {
        fill: #fff;
      }

      .cls-3 {
        stroke: none;
      }

      .cls-4 {
        fill: none;
      }
    </style>
  </defs>
  <g id="Group_2206" data-name="Group 2206" transform="translate(9857 -924)">
    <g id="Rectangle_90" data-name="Rectangle 90" class="cls-1" transform="translate(616 3504)">
      <rect class="cls-3" width="50" height="50"/>
      <rect class="cls-4" x="0.5" y="0.5" width="49" height="49"/>
    </g>
    <path id="path" class="cls-2" d="M13.2,28.3H9.008V14.827H13.2Zm-2.16-15.123h0a2.3,2.3,0,1,1,0-4.575,2.347,2.347,0,0,1,2.542,2.287A2.277,2.277,0,0,1,11.042,13.175ZM30.1,28.3H25.275v-6.99c0-1.779-.762-3.05-2.415-3.05a2.533,2.533,0,0,0-2.287,1.652c0,.254,0,.762,0,1.144V28.3h-4.7V14.827h4.7v2.16c.254-.89,1.779-2.287,4.194-2.287,3.05,0,5.337,1.906,5.337,6.1Z" transform="translate(621.5 3510.4)"/>
  </g>
</svg>
