<svg xmlns="http://www.w3.org/2000/svg" viewBox="4626.5 -2200.881 156.338 250.768">
  <defs>
    <style>
      .cls-1 {
        fill: none;
      }

      .cls-2, .cls-3 {
        fill: #4a5860;
      }

      .cls-2 {
        stroke: #4a5860;
      }
    </style>
  </defs>
  <g id="Group_2170" data-name="Group 2170" transform="translate(3300 -2677)">
    <g id="Group_2167" data-name="Group 2167" transform="translate(1482.338 725) rotate(180)">
      <path id="Path_1985" data-name="Path 1985" class="cls-1" d="M58.006,145.766a42.763,42.763,0,0,0,5.487-21.242h0a41.973,41.973,0,0,0-5.487-20.638L0,2V247.141Z" transform="translate(0 -1.07)"/>
      <path id="Path_1986" data-name="Path 1986" class="cls-2" d="M0,0V.93l58.006,101.84a41.488,41.488,0,0,1,5.487,20.638h0a43.253,43.253,0,0,1-5.487,21.242L0,246.07V247L58.421,144.881A44.353,44.353,0,0,0,64,123.407a41.957,41.957,0,0,0-5.579-20.87Z"/>
      <path id="Path_1987" data-name="Path 1987" class="cls-3" d="M138.7,265.5Z" transform="translate(-74.746 -142.093)"/>
    </g>
    <g id="Group_2168" data-name="Group 2168" transform="translate(1411.338 679) rotate(180)">
      <path id="Path_1985-2" data-name="Path 1985" class="cls-1" d="M36.3,91.963A26.76,26.76,0,0,0,39.731,78.67h0A26.265,26.265,0,0,0,36.3,65.756L0,2V155.4Z" transform="translate(0 -1.418)"/>
      <path id="Path_1986-2" data-name="Path 1986" class="cls-2" d="M0,0V.582L36.3,64.309a25.962,25.962,0,0,1,3.434,12.914h0A27.066,27.066,0,0,1,36.3,90.515L0,153.981v.582l36.557-63.9a27.754,27.754,0,0,0,3.491-13.438,26.255,26.255,0,0,0-3.491-13.06Z"/>
      <path id="Path_1987-2" data-name="Path 1987" class="cls-3" d="M138.7,265.5Z" transform="translate(-98.68 -188.277)"/>
    </g>
    <g id="Group_2169" data-name="Group 2169" transform="translate(1352.338 651) rotate(180)">
      <path id="Path_1985-3" data-name="Path 1985" class="cls-1" d="M22.965,58.919a16.931,16.931,0,0,0,2.172-8.41h0a16.618,16.618,0,0,0-2.172-8.171L0,2V99.054Z" transform="translate(0 -1.632)"/>
      <path id="Path_1986-3" data-name="Path 1986" class="cls-2" d="M0,0V.368l22.965,40.32a16.426,16.426,0,0,1,2.172,8.171h0a17.124,17.124,0,0,1-2.172,8.41L0,97.422v.368L23.129,57.36a17.56,17.56,0,0,0,2.209-8.5A16.611,16.611,0,0,0,23.129,40.6Z"/>
      <path id="Path_1987-3" data-name="Path 1987" class="cls-3" d="M138.7,265.5Z" transform="translate(-113.38 -216.642)"/>
    </g>
  </g>
</svg>
