<svg xmlns="http://www.w3.org/2000/svg" viewBox="8767.5 4025.5 34.984 38.982">
  <defs>
    <style>
      .cls-1 {
        fill: none;
        stroke: #00bfa5;
      }
    </style>
  </defs>
  <path id="path-13" class="cls-1" d="M16.992,37.982a4.12,4.12,0,0,1-1.942-.5L1.925,29.912A3.969,3.969,0,0,1,0,26.539V11.424A3.829,3.829,0,0,1,1.925,8.076L15.1.505A4.081,4.081,0,0,1,16.992,0h0a4.116,4.116,0,0,1,1.942.5L32.059,8.07a3.968,3.968,0,0,1,1.925,3.373V26.559a3.829,3.829,0,0,1-1.925,3.348l-13.175,7.57a4.08,4.08,0,0,1-1.892.505h0Z" transform="translate(8768 4026)"/>
</svg>
