<svg xmlns="http://www.w3.org/2000/svg" viewBox="3166.5 7.5 23 25.588">
  <defs>
    <style>
      .cls-1, .cls-3 {
        fill: none;
      }

      .cls-1 {
        stroke: #fff;
      }

      .cls-2 {
        stroke: none;
      }
    </style>
  </defs>
  <g id="Group_1760" data-name="Group 1760" transform="translate(1670)">
    <path id="path-13" class="cls-1" d="M11,24.588a2.667,2.667,0,0,1-1.257-.324l-8.5-4.9A2.569,2.569,0,0,1,0,17.18V7.4A2.478,2.478,0,0,1,1.246,5.228L9.775.327A2.642,2.642,0,0,1,11,0h0a2.665,2.665,0,0,1,1.257.324l8.5,4.9A2.568,2.568,0,0,1,22,7.408v9.785a2.479,2.479,0,0,1-1.246,2.167l-8.529,4.9A2.641,2.641,0,0,1,11,24.588h0Z" transform="translate(1497 8)"/>
    <path id="Path_1465" data-name="Path 1465" class="cls-1" d="M39.133,334.264a6.824,6.824,0,0,1,2.222,1.149,2.234,2.234,0,0,1,.944,1.824v1.622h-11v-1.622a2.432,2.432,0,0,1,.944-1.824,7.439,7.439,0,0,1,2.222-1.149,8.178,8.178,0,0,1,2.333-.405,8.178,8.178,0,0,1,2.333.405" transform="translate(1471.2 -313.059)"/>
    <g id="Ellipse_110" data-name="Ellipse 110" class="cls-1" transform="translate(1505 13.4)">
      <circle class="cls-2" cx="3" cy="3" r="3"/>
      <circle class="cls-3" cx="3" cy="3" r="2.5"/>
    </g>
  </g>
</svg>
