<svg xmlns="http://www.w3.org/2000/svg" viewBox="1600 9 20 22.35">
  <defs>
    <style>
      .cls-1 {
        fill: #00bfa5;
      }

      .cls-2 {
        fill: #fff;
      }
    </style>
  </defs>
  <g id="Group_1324" data-name="Group 1324" transform="translate(-305 190)">
    <path id="Path_1" data-name="Path 1" class="cls-1" d="M10,22.35a2.323,2.323,0,0,1-1.15-.3L1.133,17.6A2.309,2.309,0,0,1,0,15.617v-8.9A2.261,2.261,0,0,1,1.133,4.75L8.883.3A2.434,2.434,0,0,1,10,0a2.323,2.323,0,0,1,1.15.3l7.717,4.45A2.309,2.309,0,0,1,20,6.733v8.9A2.261,2.261,0,0,1,18.867,17.6l-7.75,4.45a2.246,2.246,0,0,1-1.117.3" transform="translate(1905 -181)"/>
    <path id="Path_2" data-name="Path 2" class="cls-2" d="M54.5,17.717V16.383a1.175,1.175,0,0,0,.767-1.1,1.183,1.183,0,1,0-2.367,0,1.175,1.175,0,0,0,.767,1.1v1.333a1.175,1.175,0,0,0-.767,1.1,1.183,1.183,0,1,0,2.367,0A1.175,1.175,0,0,0,54.5,17.717Z" transform="translate(1860.917 -192.75)"/>
    <path id="Path_3" data-name="Path 3" class="cls-2" d="M78.512,38.462a1.174,1.174,0,0,0-1.6-.433,1.154,1.154,0,0,0-.567,1.2l-1.15.667a1.172,1.172,0,1,0-.167,1.917,1.154,1.154,0,0,0,.567-1.2l1.15-.667a1.182,1.182,0,0,0,1.333.117A1.17,1.17,0,0,0,78.512,38.462Z" transform="translate(1843.938 -212.562)"/>
    <path id="Path_4" data-name="Path 4" class="cls-2" d="M54.5,88.317V86.983a1.175,1.175,0,0,0,.767-1.1,1.183,1.183,0,1,0-2.367,0,1.175,1.175,0,0,0,.767,1.1v1.333a1.175,1.175,0,0,0-.767,1.1,1.183,1.183,0,1,0,2.367,0A1.159,1.159,0,0,0,54.5,88.317Z" transform="translate(1860.917 -251.583)"/>
    <path id="Path_5" data-name="Path 5" class="cls-2" d="M19.712,72.162a1.174,1.174,0,0,0-1.6-.433,1.154,1.154,0,0,0-.567,1.2l-1.15.667a1.152,1.152,0,0,0-1.333-.1,1.172,1.172,0,0,0,1.167,2.033,1.154,1.154,0,0,0,.567-1.2l1.15-.667a1.177,1.177,0,0,0,1.767-1.5Z" transform="translate(1892.938 -240.645)"/>
    <path id="Path_6" data-name="Path 6" class="cls-2" d="M78.078,73.578a1.154,1.154,0,0,0-1.333.117l-1.15-.667a1.154,1.154,0,0,0-.567-1.2,1.172,1.172,0,1,0-1.167,2.033,1.182,1.182,0,0,0,1.333-.117l1.15.667a1.154,1.154,0,0,0,.567,1.2,1.172,1.172,0,1,0,1.167-2.033Z" transform="translate(1843.938 -240.728)"/>
    <path id="Path_7" data-name="Path 7" class="cls-2" d="M19.278,39.878a1.182,1.182,0,0,0-1.333.117l-1.15-.667a1.154,1.154,0,0,0-.567-1.2,1.172,1.172,0,1,0,.167,1.933l1.15.667a1.167,1.167,0,0,0,2.167.767A1.193,1.193,0,0,0,19.278,39.878Z" transform="translate(1892.938 -212.645)"/>
  </g>
</svg>
