<svg xmlns="http://www.w3.org/2000/svg" viewBox="1694 88 152.042 65">
  <defs>
    <style>
      .cls-1 {
        fill: #00bfa5;
      }

      .cls-2 {
        fill: #fff;
      }

      .cls-3 {
        fill: #4a5860;
      }
    </style>
  </defs>
  <g id="Group_1399" data-name="Group 1399" transform="translate(1694 88)">
    <g id="Group_3" data-name="Group 3">
      <path id="Path_1" data-name="Path 1" class="cls-1" d="M29.083,65a6.755,6.755,0,0,1-3.345-.872L3.3,51.186A6.714,6.714,0,0,1,0,45.418V19.534a6.576,6.576,0,0,1,3.3-5.72L25.835.872A7.08,7.08,0,0,1,29.083,0a6.755,6.755,0,0,1,3.345.872L54.87,13.814a6.714,6.714,0,0,1,3.3,5.768V45.466a6.576,6.576,0,0,1-3.3,5.72L32.33,64.128A6.532,6.532,0,0,1,29.083,65"/>
    </g>
    <path id="Path_2" data-name="Path 2" class="cls-2" d="M57.553,24.618V20.741a3.418,3.418,0,0,0,2.23-3.2,3.441,3.441,0,1,0-6.883,0,3.418,3.418,0,0,0,2.23,3.2v3.878a3.418,3.418,0,0,0-2.23,3.2,3.441,3.441,0,0,0,6.883,0A3.418,3.418,0,0,0,57.553,24.618Z" transform="translate(-27.259 -7.266)"/>
    <path id="Path_3" data-name="Path 3" class="cls-2" d="M88.507,39.583a3.414,3.414,0,0,0-4.653-1.26,3.355,3.355,0,0,0-1.648,3.49l-3.345,1.939a3.408,3.408,0,1,0-.485,5.574,3.355,3.355,0,0,0,1.648-3.49L83.369,43.9a3.438,3.438,0,0,0,3.878.339A3.4,3.4,0,0,0,88.507,39.583Z" transform="translate(-37.757 -19.516)"/>
    <path id="Path_4" data-name="Path 4" class="cls-2" d="M57.553,95.218V91.341a3.418,3.418,0,0,0,2.23-3.2,3.441,3.441,0,0,0-6.883,0,3.418,3.418,0,0,0,2.23,3.2v3.878a3.418,3.418,0,0,0-2.23,3.2,3.441,3.441,0,0,0,6.883,0A3.371,3.371,0,0,0,57.553,95.218Z" transform="translate(-27.259 -43.645)"/>
    <path id="Path_5" data-name="Path 5" class="cls-2" d="M29.707,73.283a3.414,3.414,0,0,0-4.653-1.26,3.355,3.355,0,0,0-1.648,3.49l-3.345,1.939a3.351,3.351,0,0,0-3.878-.291,3.409,3.409,0,0,0,3.393,5.913,3.355,3.355,0,0,0,1.648-3.49l3.345-1.939a3.422,3.422,0,0,0,5.138-4.362Z" transform="translate(-7.458 -36.881)"/>
    <path id="Path_6" data-name="Path 6" class="cls-2" d="M87.246,77.212a3.356,3.356,0,0,0-3.878.339l-3.345-1.939a3.355,3.355,0,0,0-1.648-3.49,3.409,3.409,0,1,0-3.393,5.913,3.438,3.438,0,0,0,3.878-.339l3.345,1.939a3.355,3.355,0,0,0,1.648,3.49,3.409,3.409,0,1,0,3.393-5.913Z" transform="translate(-37.757 -36.933)"/>
    <g id="Group_4" data-name="Group 4" transform="translate(7.016 9.152)">
      <path id="Path_7" data-name="Path 7" class="cls-2" d="M28.446,43.512a3.438,3.438,0,0,0-3.878.339l-3.345-1.939a3.355,3.355,0,0,0-1.648-3.49,3.409,3.409,0,1,0,.485,5.623l3.345,1.939a3.395,3.395,0,0,0,6.3,2.23A3.471,3.471,0,0,0,28.446,43.512Z" transform="translate(-14.474 -28.719)"/>
      <path id="Path_8" data-name="Path 8" class="cls-3" d="M154.745,18.9a1.49,1.49,0,0,1,1.5,1.5V33.975a1.5,1.5,0,1,1-3.005,0V28.3h-8.337v5.671a1.5,1.5,0,1,1-3.005,0V20.4a1.5,1.5,0,1,1,3.005,0v5.186h8.434V20.4a1.5,1.5,0,0,1,.436-1.066,1.22,1.22,0,0,1,.969-.436" transform="translate(-80.135 -18.891)"/>
      <path id="Path_9" data-name="Path 9" class="cls-3" d="M190.511,19.181a1.446,1.446,0,0,1,.582,1.163,1.36,1.36,0,0,1-.339.921l-5.38,7.271v5.429a1.461,1.461,0,0,1-1.406,1.5h-.048a1.49,1.49,0,0,1-1.5-1.5v-5.38l-5.477-7.271a1.531,1.531,0,0,1-.339-.921,1.49,1.49,0,0,1,1.5-1.5,1.618,1.618,0,0,1,1.212.582l4.508,6.059,4.6-6.107a1.515,1.515,0,0,1,.533-.436,2.837,2.837,0,0,1,.63-.1,1.243,1.243,0,0,1,.921.291" transform="translate(-98.015 -18.881)"/>
      <path id="Path_10" data-name="Path 10" class="cls-3" d="M214.708,22.063V32.678h2.811a4.527,4.527,0,0,0,1.939-.436,5.215,5.215,0,0,0,1.551-1.163,6.077,6.077,0,0,0,1.018-1.7,7.212,7.212,0,0,0,.388-2.036,4.692,4.692,0,0,0-.388-1.987,5.212,5.212,0,0,0-2.569-2.811,4.373,4.373,0,0,0-1.939-.436l-2.811-.048ZM217.52,19.3a7.735,7.735,0,0,1,5.526,2.327,6.762,6.762,0,0,1,1.6,2.569,8.564,8.564,0,0,1,0,6.2,8.21,8.21,0,0,1-1.6,2.569,7.486,7.486,0,0,1-5.526,2.424h-4.265a1.458,1.458,0,0,1-1.454-1.454V20.754a1.491,1.491,0,0,1,1.454-1.454Z" transform="translate(-116.154 -19.097)"/>
      <path id="Path_11" data-name="Path 11" class="cls-3" d="M249.705,27.2h3.878a3.359,3.359,0,0,0,.969-.145,2.059,2.059,0,0,0,.824-.485,2.555,2.555,0,0,0,.533-.727,1.67,1.67,0,0,0,.194-.969,2.532,2.532,0,0,0-.194-1.018,8.427,8.427,0,0,0-.533-.872,2.535,2.535,0,0,0-.824-.582,1.67,1.67,0,0,0-.969-.194h-3.878Zm8.919,6.059a2.926,2.926,0,0,1,.291.921,1.5,1.5,0,0,1-.436,1.066,1.309,1.309,0,0,1-1.066.485,1.342,1.342,0,0,1-.63-.145,1.516,1.516,0,0,1-.533-.436l-3.732-5.138h-2.811v4.169a1.49,1.49,0,0,1-1.5,1.5,1.461,1.461,0,0,1-1.5-1.406V20.8a1.248,1.248,0,0,1,.485-1.066,1.5,1.5,0,0,1,1.066-.436h5.283a5.416,5.416,0,0,1,2.133.436,5.871,5.871,0,0,1,1.7,1.163,6.856,6.856,0,0,1,1.163,1.745,5.415,5.415,0,0,1,.436,2.133,4.883,4.883,0,0,1-.873,2.908,5.977,5.977,0,0,1-2.23,1.89Z" transform="translate(-134.137 -19.097)"/>
      <path id="Path_12" data-name="Path 12" class="cls-3" d="M280.805,27.24a5.416,5.416,0,0,0,.436,2.133,4.916,4.916,0,0,0,1.115,1.7A6.369,6.369,0,0,0,284,32.233a5.2,5.2,0,0,0,4.168,0,5.069,5.069,0,0,0,1.648-1.163,4.916,4.916,0,0,0,1.115-1.7,5.432,5.432,0,0,0,0-4.265,4.688,4.688,0,0,0-1.115-1.745,4.866,4.866,0,0,0-1.648-1.163,5.2,5.2,0,0,0-4.168,0,5.306,5.306,0,0,0-2.763,2.908,5.416,5.416,0,0,0-.436,2.133m-3.005,0a8.015,8.015,0,0,1,.63-3.2,8.353,8.353,0,0,1,4.411-4.411,8.183,8.183,0,0,1,3.2-.63,8.016,8.016,0,0,1,3.2.63,8.354,8.354,0,0,1,4.411,4.411,8.266,8.266,0,0,1,0,6.447,8.354,8.354,0,0,1-4.411,4.411,8.184,8.184,0,0,1-3.2.63,8.015,8.015,0,0,1-3.2-.63,8.353,8.353,0,0,1-4.411-4.411,9.428,9.428,0,0,1-.63-3.248" transform="translate(-150.162 -18.942)"/>
      <path id="Path_13" data-name="Path 13" class="cls-1" d="M140,76.854a12.966,12.966,0,0,1,.969-4.9,12.55,12.55,0,0,1,6.689-6.689,12.965,12.965,0,0,1,4.9-.969,13.161,13.161,0,0,1,2.375.242,12.2,12.2,0,0,1,2.278.63,9.831,9.831,0,0,1,2.036.969,5.661,5.661,0,0,1,1.648,1.406,1.917,1.917,0,0,1,.485.727,2.264,2.264,0,0,1,.145.824,1.731,1.731,0,0,1-.582,1.309,1.759,1.759,0,0,1-1.454.63,2.032,2.032,0,0,1-1.066-.242c-.242-.145-.582-.388-.921-.63a10.751,10.751,0,0,0-2.036-1.212,7.586,7.586,0,0,0-2.957-.485,8.44,8.44,0,0,0-3.1.63,7.728,7.728,0,0,0-2.521,1.793,6.947,6.947,0,0,0-1.7,2.714,8.25,8.25,0,0,0-.63,3.248,9.215,9.215,0,0,0,.63,3.248,7.606,7.606,0,0,0,1.7,2.666,7.728,7.728,0,0,0,2.521,1.793,7.559,7.559,0,0,0,3.1.63,9.078,9.078,0,0,0,3.005-.485,5.67,5.67,0,0,0,2.52-1.551V79.181h-5.526a2.633,2.633,0,0,1-1.648-.582,1.888,1.888,0,0,1-.63-1.551,1.935,1.935,0,0,1,.63-1.454,2.228,2.228,0,0,1,1.648-.582h7.755a2.689,2.689,0,0,1,1.648.63,1.888,1.888,0,0,1,.63,1.551v6.544a2.052,2.052,0,0,1-.582,1.454,12.673,12.673,0,0,1-4.265,3.2,13.118,13.118,0,0,1-10.13.1,12.55,12.55,0,0,1-6.689-6.689A15.369,15.369,0,0,1,140,76.854" transform="translate(-79.156 -42.285)"/>
      <path id="Path_14" data-name="Path 14" class="cls-1" d="M203.308,76.772h5.865a4.812,4.812,0,0,0,1.454-.242,3.12,3.12,0,0,0,1.212-.727,3.91,3.91,0,0,0,.824-1.163A3.055,3.055,0,0,0,213,73.186a3.447,3.447,0,0,0-.339-1.551,5.987,5.987,0,0,0-.824-1.309,4.459,4.459,0,0,0-1.212-.921,3.055,3.055,0,0,0-1.454-.339h-5.865Zm13.717,9.21a2.78,2.78,0,0,1,.388,1.406,2.688,2.688,0,0,1-.63,1.648,2.1,2.1,0,0,1-1.648.727,2.206,2.206,0,0,1-.969-.242,5.291,5.291,0,0,1-.824-.63l-5.72-7.852h-4.265v6.447a2.583,2.583,0,0,1-.63,1.648,2.086,2.086,0,0,1-1.648.63,2.223,2.223,0,0,1-2.278-2.181v-20.5a2.171,2.171,0,0,1,.727-1.648,2.266,2.266,0,0,1,1.648-.63h8.095a9.214,9.214,0,0,1,3.248.63,8.688,8.688,0,0,1,2.617,1.793,8.545,8.545,0,0,1,1.793,2.714,8.25,8.25,0,0,1,.63,3.248A7.591,7.591,0,0,1,216.25,77.6a8.24,8.24,0,0,1-3.441,2.86Z" transform="translate(-109.455 -42.542)"/>
      <path id="Path_15" data-name="Path 15" class="cls-1" d="M249,66.372a2.688,2.688,0,0,1,.63-1.648,2.086,2.086,0,0,1,1.648-.63,2.688,2.688,0,0,1,1.648.63,2.266,2.266,0,0,1,.63,1.648v20.7a2.688,2.688,0,0,1-.63,1.648,2.086,2.086,0,0,1-1.648.63A2.223,2.223,0,0,1,249,87.166V66.372Z" transform="translate(-135.322 -42.175)"/>
      <path id="Path_16" data-name="Path 16" class="cls-1" d="M276,68.962V85.1h4.266a7.7,7.7,0,0,0,2.957-.63,7.161,7.161,0,0,0,2.375-1.793,8.906,8.906,0,0,0,1.551-2.617,11.322,11.322,0,0,0,.582-3.1,7.9,7.9,0,0,0-.582-3.005,7.548,7.548,0,0,0-1.551-2.521,7.878,7.878,0,0,0-2.375-1.793,6.9,6.9,0,0,0-2.957-.63H276Zm4.217-4.169a10.982,10.982,0,0,1,4.653.969A10.632,10.632,0,0,1,288.6,68.38a11.348,11.348,0,0,1,2.424,3.926,12.742,12.742,0,0,1,0,9.452,13.641,13.641,0,0,1-2.424,3.926,11.487,11.487,0,0,1-8.386,3.684h-6.544a2.172,2.172,0,0,1-2.181-2.181V66.975a2.152,2.152,0,0,1,2.181-2.181Z" transform="translate(-146.91 -42.536)"/>
    </g>
  </g>
</svg>
