<?xml version="1.0" encoding="utf-8"?>
<!-- Generator: Adobe Illustrator 21.0.0, SVG Export Plug-In . SVG Version: 6.00 Build 0)  -->
<svg version="1.1" id="Layer_1" xmlns="http://www.w3.org/2000/svg" xmlns:xlink="http://www.w3.org/1999/xlink" x="0px" y="0px"
	 viewBox="0 0 81 90.4" style="enable-background:new 0 0 81 90.4;" xml:space="preserve">
<style type="text/css">
	.st0{fill:#E4F8F5;stroke:#00BFA5;}
	.st1{fill:none;stroke:#00BFA5;stroke-width:2;}
</style>
<g id="Group_1353" transform="translate(8351 1404)">
	<path id="Path_1592" class="st0" d="M-8310.5-1314.1c-1.6,0-3.2-0.4-4.6-1.2l-30.9-17.8c-2.8-1.7-4.5-4.7-4.5-7.9v-35.6
		c0-3.2,1.7-6.2,4.5-7.9l31-17.8c1.4-0.8,2.9-1.2,4.5-1.2c1.6,0,3.2,0.4,4.6,1.2l30.9,17.8c2.8,1.7,4.5,4.7,4.5,7.9v35.6
		c0,3.2-1.7,6.2-4.5,7.9l-31,17.8C-8307.4-1314.5-8308.9-1314.1-8310.5-1314.1"/>
	<path id="Path_1581" class="st1" d="M-8331-1362l20,16l20-16"/>
</g>
</svg>
