<svg xmlns="http://www.w3.org/2000/svg" viewBox="9211.5 5307.5 81 90.4">
  <defs>
    <style>
      .cls-1 {
        fill: #fff;
      }

      .cls-1, .cls-2 {
        stroke: #00bfa5;
      }

      .cls-2 {
        fill: none;
        stroke-width: 2px;
      }
    </style>
  </defs>
  <g id="Group_1353" data-name="Group 1353" transform="translate(8351 1404)">
    <path id="Path_1592" data-name="Path 1592" class="cls-1" d="M40,89.4a9.291,9.291,0,0,1-4.6-1.2L4.533,70.4A9.234,9.234,0,0,1,0,62.467v-35.6A9.045,9.045,0,0,1,4.533,19l31-17.8A9.737,9.737,0,0,1,40,0a9.291,9.291,0,0,1,4.6,1.2L75.467,19A9.234,9.234,0,0,1,80,26.933v35.6A9.045,9.045,0,0,1,75.467,70.4l-31,17.8A8.984,8.984,0,0,1,40,89.4" transform="translate(861 3904)"/>
    <path id="Path_1581" data-name="Path 1581" class="cls-2" d="M2470,1029.43l20,16,20-16" transform="translate(-1589.5 2916.07)"/>
  </g>
</svg>
