<svg xmlns="http://www.w3.org/2000/svg" viewBox="1693.5 858.5 41.5 46.264">
  <defs>
    <style>
      .cls-1, .cls-2 {
        fill: none;
      }

      .cls-1 {
        stroke: #00bfa5;
      }

      .cls-2 {
        stroke: #4a5860;
      }
    </style>
  </defs>
  <g id="Group_1400" data-name="Group 1400" transform="translate(1670)">
    <path id="path-13" class="cls-1" d="M20.25,45.264a4.91,4.91,0,0,1-2.314-.6L2.294,35.647A4.73,4.73,0,0,1,0,31.627V13.614a4.563,4.563,0,0,1,2.294-3.99L18,.6A4.863,4.863,0,0,1,20.25,0h0a4.905,4.905,0,0,1,2.314.6L38.206,9.617a4.728,4.728,0,0,1,2.294,4.02V31.651a4.563,4.563,0,0,1-2.294,3.99L22.5,44.662a4.862,4.862,0,0,1-2.255.6h0Z" transform="translate(24 859)"/>
    <path id="Path_1583" data-name="Path 1583" class="cls-2" d="M2.523.049a.557.557,0,0,0-.332.022C1,.536.244,2.24.067,3.412c-.553,3.806,2.456,7.1,5.222,9.272,2.456,1.925,7.17,5.09,9.958,2.036A2.3,2.3,0,0,0,16,13.238c-.066-.929-.929-1.593-1.593-2.1-.509-.376-1.571-1.416-2.235-1.394-.6.022-.974.642-1.35,1.018l-.664.664c-.111.111-1.527-.819-1.682-.929A11.293,11.293,0,0,1,6.86,9.232a10.434,10.434,0,0,1-1.306-1.5,7.7,7.7,0,0,1-.929-1.615s.775-.841,1-1.173c.465-.708.819-1.261.288-2.1A4.949,4.949,0,0,0,5.2,2.018,13.468,13.468,0,0,0,3.74.735,3.12,3.12,0,0,0,2.523.049Z" transform="translate(36 873.338)"/>
  </g>
</svg>
