<svg xmlns="http://www.w3.org/2000/svg" viewBox="1373.5 1002.5 41 45.706">
  <defs>
    <style>
      .cls-1, .cls-2, .cls-5 {
        fill: none;
      }

      .cls-1 {
        stroke: #00bfa5;
      }

      .cls-2, .cls-3 {
        stroke: #4a5860;
      }

      .cls-3 {
        fill: #fff;
      }

      .cls-4 {
        stroke: none;
      }
    </style>
  </defs>
  <g id="Group_1759" data-name="Group 1759" transform="translate(1350)">
    <path id="path-13" class="cls-1" d="M20,44.706a4.85,4.85,0,0,1-2.286-.588L2.266,35.207A4.671,4.671,0,0,1,0,31.237V13.446a4.506,4.506,0,0,1,2.266-3.94L17.773.595A4.8,4.8,0,0,1,20,0h0a4.845,4.845,0,0,1,2.286.588L37.734,9.5A4.67,4.67,0,0,1,40,13.469V31.26a4.507,4.507,0,0,1-2.266,3.94L22.227,44.111A4.8,4.8,0,0,1,20,44.706h0Z" transform="translate(24 1003)"/>
    <g id="Group_1510" data-name="Group 1510" transform="translate(0.5)">
      <g id="Rectangle_118" data-name="Rectangle 118" class="cls-2" transform="translate(33 1016.864)">
        <rect class="cls-4" width="21" height="18.136" rx="5"/>
        <rect class="cls-5" x="0.5" y="0.5" width="20" height="17.136" rx="4.5"/>
      </g>
      <g id="Rectangle_119" data-name="Rectangle 119" class="cls-3" transform="translate(37.773 1014)">
        <rect class="cls-4" width="2.864" height="6.682" rx="1.432"/>
        <rect class="cls-5" x="0.5" y="0.5" width="1.864" height="5.682" rx="0.932"/>
      </g>
      <g id="Rectangle_120" data-name="Rectangle 120" class="cls-3" transform="translate(46.364 1014)">
        <rect class="cls-4" width="2.864" height="6.682" rx="1.432"/>
        <rect class="cls-5" x="0.5" y="0.5" width="1.864" height="5.682" rx="0.932"/>
      </g>
      <g id="Group_1422" data-name="Group 1422" transform="translate(38.727 1021.159)">
        <line id="Line_110" data-name="Line 110" class="cls-2" y2="9.545" transform="translate(4.773 0)"/>
        <line id="Line_111" data-name="Line 111" class="cls-2" x1="9.545" transform="translate(0 4.773)"/>
      </g>
    </g>
  </g>
</svg>
